<?xml version="1.0" standalone="no"?><!DOCTYPE svg PUBLIC "-//W3C//DTD SVG 1.1//EN" "http://www.w3.org/Graphics/SVG/1.1/DTD/svg11.dtd"><svg t="1611557804027" class="icon" viewBox="0 0 1024 1024" version="1.1" xmlns="http://www.w3.org/2000/svg" p-id="7522" xmlns:xlink="http://www.w3.org/1999/xlink" width="32" height="32"><defs><style type="text/css"></style></defs><path d="M661 475.7c0 22.6-18.3 41-41 41H393.9c-22.6 0-41-18.3-41-41 0-22.6 18.3-41 41-41h226.2c22.6 0 40.9 18.4 40.9 41z" fill="#ffffff" p-id="7523"></path><path d="M533.5 459.7c-16 16-41.9 16-57.9 0l-101.1-101c-16-16-16-41.9 0-57.9s41.9-16 57.9 0l101.1 101.1c16 15.9 16 41.8 0 57.8z" fill="#ffffff" p-id="7524"></path><path d="M482.5 459.7c-16-16-16-41.9 0-57.9L585 299.4c16-16 41.9-16 57.9 0s16 41.9 0 57.9L540.5 459.7c-16 16-42 16-58 0zM661 605c0 22.6-18.3 41-41 41H393.9c-22.6 0-41-18.3-41-41 0-22.6 18.3-41 41-41h226.2c22.6 0.1 40.9 18.4 40.9 41z" fill="#ffffff" p-id="7525"></path><path d="M507 740c-22.6 0-41-18.3-41-41V448.6c0-22.6 18.3-41 41-41 22.6 0 41 18.3 41 41v250.5c0 22.6-18.4 40.9-41 40.9zM123.6 806.7v-40.9V782c0.8 13.8 12.2 24.7 26.2 24.7h-26.2zM889.9 201.2v40.9-16.2c-0.8-13.8-12.2-24.7-26.2-24.7h26.2z" fill="#ffffff" p-id="7526"></path><path d="M926.9 394.1c1.2 0 2.5 0 3.7 0.1v-0.1c22.6 0 41-18.3 41-41V177.3c-5-32.7-33.2-57.7-67.3-57.7h-0.5v-0.1h-54.1v-0.1H104.8c-35.1 2.7-62.7 32.1-62.7 67.9v0.5H42v54.1h-0.1v111.3c0 22.6 18.3 41 41 41v0.1c1.2 0 2.5-0.1 3.7-0.1 60.6 0 109.7 49.1 109.7 109.7S147.2 613.5 86.6 613.5c-1.2 0-2.5 0-3.7-0.1v0.1c-22.6 0-41 18.3-41 41v166.1c0 34.9 26.3 63.6 60.1 67.6h828.6c22.6 0 41-18.3 41-41 0-22.6-18.3-41-41-41H123.8v-114c88.2-17.3 154.7-95.1 154.7-188.4s-66.5-171-154.7-188.4V201.3h765.8v114.2c-88.2 17.3-154.7 95.1-154.7 188.4s66.5 171 154.7 188.4V722c0 22.6 18.3 41 41 41 22.6 0 41-18.3 41-41v-67.4c0-22.6-18.3-41-41-41v-0.1c-1.2 0-2.5 0.1-3.7 0.1-60.6 0-109.7-49.1-109.7-109.7s49.1-109.8 109.7-109.8z" fill="#ffffff" p-id="7527"></path></svg>