<?xml version="1.0" standalone="no"?><!DOCTYPE svg PUBLIC "-//W3C//DTD SVG 1.1//EN" "http://www.w3.org/Graphics/SVG/1.1/DTD/svg11.dtd"><svg t="1611561023853" class="icon" viewBox="0 0 1024 1024" version="1.1" xmlns="http://www.w3.org/2000/svg" p-id="2880" xmlns:xlink="http://www.w3.org/1999/xlink" width="32" height="32"><defs><style type="text/css"></style></defs><path d="M534.528 101.888c-244.736 0-443.733333 198.997333-443.733333 443.733333s198.997333 443.733333 443.733333 443.733334 443.733333-198.997333 443.733333-443.733334-198.997333-443.733333-443.733333-443.733333z m0 819.2c-207.018667 0-375.466667-168.448-375.466667-375.466667s168.448-375.466667 375.466667-375.466666 375.466667 168.448 375.466667 375.466666-168.448 375.466667-375.466667 375.466667z" p-id="2881" fill="#FC86BF"></path><path d="M561.834667 344.234667c-38.570667-7.850667-77.824 1.365333-107.861334 25.770666a127.4368 127.4368 0 0 0-47.274666 99.328c0 18.773333 15.36 34.133333 34.133333 34.133334s34.133333-15.36 34.133333-34.133334c0-18.090667 8.021333-34.986667 22.016-46.421333 14.165333-11.605333 32.256-15.872 50.858667-11.946667 22.357333 4.608 40.448 22.698667 45.056 45.056 7.168 34.474667-13.994667 61.098667-38.741333 69.632a79.752533 79.752533 0 0 0-53.76 75.264v18.432c0 18.773333 15.36 34.133333 34.133333 34.133334s34.133333-15.36 34.133333-34.133334v-18.432c0-4.778667 3.072-9.216 7.850667-10.752 60.586667-20.992 96.426667-84.650667 83.285333-148.138666-10.069333-48.298667-49.493333-87.722667-97.962666-97.792zM534.528 680.96c-18.773333 0-34.133333 15.36-34.133333 34.133333V733.866667c0 18.773333 15.36 34.133333 34.133333 34.133333s34.133333-15.36 34.133333-34.133333v-18.773334a34.133333 34.133333 0 0 0-34.133333-34.133333z" p-id="2882" fill="#FC86BF"></path></svg>