<?xml version="1.0" standalone="no"?><!DOCTYPE svg PUBLIC "-//W3C//DTD SVG 1.1//EN" "http://www.w3.org/Graphics/SVG/1.1/DTD/svg11.dtd"><svg t="1614172224792" class="icon" viewBox="0 0 1024 1024" version="1.1" xmlns="http://www.w3.org/2000/svg" p-id="4450" xmlns:xlink="http://www.w3.org/1999/xlink" width="48" height="48"><defs><style type="text/css"></style></defs><path d="M512 1024C229.225412 1024 0 794.774588 0 512S229.225412 0 512 0s512 229.225412 512 512-229.225412 512-512 512zM301.176471 271.058824a30.117647 30.117647 0 0 0-30.117647 30.117647v435.802353a30.117647 30.117647 0 0 0 41.261176 27.979294l188.024471-74.842353a30.117647 30.117647 0 0 1 22.256941 0l189.138823 74.932706a30.117647 30.117647 0 0 0 41.200941-28.009412V301.176471a30.117647 30.117647 0 0 0-30.117647-30.117647H301.176471z m210.823529 269.281882l-70.806588 39.002353 15.209412-79.390118-58.970353-55.296 80.203294-10.059294L512 361.411765l34.364235 73.185882 80.203294 10.059294-58.970353 55.296 15.209412 79.390118L512 540.340706z" p-id="4451" fill="#FC86BF"></path></svg>