<?xml version="1.0" standalone="no"?><!DOCTYPE svg PUBLIC "-//W3C//DTD SVG 1.1//EN" "http://www.w3.org/Graphics/SVG/1.1/DTD/svg11.dtd"><svg t="1611561000309" class="icon" viewBox="0 0 1063 1024" version="1.1" xmlns="http://www.w3.org/2000/svg" p-id="896" xmlns:xlink="http://www.w3.org/1999/xlink" width="33.21875" height="32"><defs><style type="text/css"></style></defs><path d="M571.468234 457.117268V218.671145c-12.036944 0-23.787294-2.292751-33.81808-4.012315h-2.579345c-12.896725 1.719563-28.65939 3.725721-46.714806 5.445284v237.013154H0V266.81892a53.306465 53.306465 0 0 1 53.593059-53.306465h222.396865c-59.611531-12.610132-104.606773-38.116989-106.039742-85.97817C168.230619 72.508256 230.994682-17.482228 322.70473 3.152533s160.492583 94.575987 211.219703 157.053456c51.013714-63.910439 123.52197-146.162888 222.110272-159.059613 82.539043-10.603974 150.748391 71.935069 141.86398 126.101315-7.451441 47.574587-53.019871 73.654632-111.198433 85.97817h219.530926A53.306465 53.306465 0 0 1 1060.397425 266.81892v190.298348zM332.735516 52.446683a67.062972 67.062972 0 0 0-91.710047 32.098517c-11.75035 18.915197-21.781136 42.702491-5.15869 60.184719C280.002239 190.011755 401.231458 186.572628 481.191156 178.261405a382.316261 382.316261 0 0 0-148.45564-125.814722zM831.122306 144.443325c31.525329-40.123146-30.092359-123.808564-96.008956-92.856423a437.628883 437.628883 0 0 0-147.595858 125.814721 758.040862 758.040862 0 0 0 102.027428 2.006158c41.556115 0 118.076686-4.585502 143.29695-34.964456zM491.508536 1020.847467H93.716205a48.434369 48.434369 0 0 1-48.434369-47.861181V493.801287h446.2267z m523.033865-47.861181a48.434369 48.434369 0 0 1-48.434369 48.720963H568.315701V493.801287H1014.542401z" p-id="897" fill="#FC86BF"></path></svg>