<?xml version="1.0" standalone="no"?><!DOCTYPE svg PUBLIC "-//W3C//DTD SVG 1.1//EN" "http://www.w3.org/Graphics/SVG/1.1/DTD/svg11.dtd"><svg t="1614235862229" class="icon" viewBox="0 0 1024 1024" version="1.1" xmlns="http://www.w3.org/2000/svg" p-id="3567" xmlns:xlink="http://www.w3.org/1999/xlink" width="48" height="48"><defs><style type="text/css"></style></defs><path d="M1004.896564 418.576986c-22.337757-37.46228-60.963461-60.82385-100.612979-62.057081l-245.924741-1.23323a485.148155 485.148155 0 0 0 24.664606-152.990365c0-25.897837-2.140702-52.354117-6.887475-80.974369l-4.560625-20.685693C658.498455 41.464461 608.703872 0 550.346482 0c-68.642065 0-124.463189 58.264316-124.463188 129.954554 0 4.165061 0.139611 8.237048 0.511907 11.634248-3.373932 127.092529-150.035266 258.233776-199.876386 258.233776h-0.069806l-182.727504 0.116342c-23.850209 0-43.279404 20.336666-43.279404 45.210689L0 978.486821c0 25.292856 20.988184 43.744774 47.258317 44.466097l158.388656-0.302491 6.096346 1.163425 5.305218-0.791129 602.816942 0.232685a123.090347 123.090347 0 0 0 59.381203-20.197055c19.19651-12.867479 34.693328-30.970369 41.743683-46.909289l7.352845-12.797673c41.534266-103.149246 92.213052-419.019087 94.26068-432.375205l0.837666-12.797673a134.95728 134.95728 0 0 0-18.544992-79.601527zM74.319578 477.376477l98.542084-0.139611v468.836939l-98.891111 0.279222 0.349027-468.97655zM862.56317 908.797673l-4.653699 7.725141c-4.188329 8.865297-10.633703 16.334485-18.475186 21.593165a49.259407 49.259407 0 0 1-22.081804 8.097437l-570.590074-0.232685V473.141611c97.448464-19.778222 249.321941-175.188511 253.440465-335.345574l-0.46537-7.841483c0-29.132158 22.710053-52.889293 50.632249-52.889293 23.733867 0 43.977459 16.823123 49.282676 40.952554l4.118524 18.312307c3.629885 22.105072 5.398291 44.233412 5.398291 65.849845 0 43.744774-6.980549 86.97764-20.871842 128.372296l-33.995273 101.683331 336.415924 0.046537 7.957826 0.860934c17.893474 0.698055 34.134885 10.470823 43.512089 26.200327 5.840393 9.796037 8.493001 21.1976 7.608798 39.021269-0.511907 3.071442-51.330304 320.197782-87.233594 410.456281z" p-id="3568" fill="#FC86BF"></path></svg>