<?xml version="1.0" standalone="no"?><!DOCTYPE svg PUBLIC "-//W3C//DTD SVG 1.1//EN" "http://www.w3.org/Graphics/SVG/1.1/DTD/svg11.dtd"><svg t="1611561146732" class="icon" viewBox="0 0 1024 1024" version="1.1" xmlns="http://www.w3.org/2000/svg" p-id="21633" xmlns:xlink="http://www.w3.org/1999/xlink" width="32" height="32"><defs><style type="text/css"></style></defs><path d="M902.451 168.73a63.275 63.275 0 0 0-42.769-16.273h-4.505c-0.956 0-10.983 0.938-26.428 0.938-26.42 0-76.459-1.834-124.63-13.534-61.917-14.438-133.76-82.235-154.709-95.77-10.044-6.374-22.775-9.958-34.594-9.958-11.836 0-23.62 3.584-34.594 9.959-2.611 1.792-77.21 78.55-150 95.77-48.23 11.69-100.12 13.542-125.584 13.542-16.35 0-26.368-0.947-27.281-0.947h-3.61c-16.384 0-30.976 5.478-42.76 16.273a57.574 57.574 0 0 0-20.054 43.409v149.93c0 552.832 377.609 624.162 393.046 626.902 3.669 0.896 7.321 0.896 10.93 0.896 3.61 0 7.322 0 10.932-0.896C542.182 986.24 921.6 914.9 921.6 362.069V212.14c0-16.273-7.322-32.555-19.098-43.41h-0.05zM762.325 382.874L501.18 633.958c-1.81 2.731-3.61 5.47-6.375 7.262a38.758 38.758 0 0 1-27.272 10.803 42.496 42.496 0 0 1-28.22-10.803 21.914 21.914 0 0 1-5.461-7.262L293.76 499.354a35.814 35.814 0 0 1-10.923-25.737 35.79 35.79 0 0 1 10.923-25.728c14.54-14.438 39.108-14.438 53.65 0l120.114 114.73 241.152-231.261c15.446-14.439 39.1-14.439 53.64 0a34.44 34.44 0 0 1 11.606 25.762c0 9.83-4.215 19.2-11.605 25.754z" p-id="21634"></path></svg>