<?xml version="1.0" standalone="no"?><!DOCTYPE svg PUBLIC "-//W3C//DTD SVG 1.1//EN" "http://www.w3.org/Graphics/SVG/1.1/DTD/svg11.dtd"><svg t="1614155229055" class="icon" viewBox="0 0 1024 1024" version="1.1" xmlns="http://www.w3.org/2000/svg" p-id="889" xmlns:xlink="http://www.w3.org/1999/xlink" width="200" height="200"><defs><style type="text/css"></style></defs><path d="M512 958.3c-130.9 0-374.3-199.2-374.3-387.6V195.5l37.2-0.6c0.8 0 83.9-1.8 169.6-36.4 87.9-35.5 144.6-76.3 145.2-76.7l22.2-16.1 22.4 16.1c0.5 0.4 57.2 41.2 145.2 76.7 85.7 34.6 168.8 36.4 169.7 36.4l37 0.6 0.2 375.3c-0.1 188.3-243.5 387.5-374.4 387.5zM213.3 267.4v303.3c0 145.6 212 312.4 298.7 312.4 86.7 0 298.7-166.7 298.7-312.4V267.4c-37-4-97.2-14-159.6-39.3-64-25.9-112.6-54-139.1-70.8-26.4 16.8-75.1 44.9-139 70.8-62.6 25.3-122.7 35.3-159.7 39.3z m278.6 444.3L333 577.1l48.9-57.2 102 86.3 193.5-221.8 57.1 49.3-242.6 278z" p-id="890" fill="#8a8a8a"></path></svg>