<?xml version="1.0" standalone="no"?><!DOCTYPE svg PUBLIC "-//W3C//DTD SVG 1.1//EN" "http://www.w3.org/Graphics/SVG/1.1/DTD/svg11.dtd"><svg t="1614155244124" class="icon" viewBox="0 0 1024 1024" version="1.1" xmlns="http://www.w3.org/2000/svg" p-id="1659" xmlns:xlink="http://www.w3.org/1999/xlink" width="200" height="200"><defs><style type="text/css"></style></defs><path d="M283.927273 656.290909h363.054545c18.618182 0 32.581818-13.963636 32.581818-32.581818 0-18.618182-13.963636-32.581818-32.581818-32.581818h-363.054545c-18.618182 0-32.581818 13.963636-32.581818 32.581818-4.654545 13.963636 13.963636 32.581818 32.581818 32.581818zM572.509091 223.418182h-288.581818c-18.618182 0-32.581818 13.963636-32.581818 32.581818 0 18.618182 13.963636 32.581818 32.581818 32.581818h288.581818c18.618182 0 32.581818-13.963636 32.581818-32.581818 0-18.618182-13.963636-32.581818-32.581818-32.581818z" p-id="1660" fill="#8a8a8a"></path><path d="M316.509091 1019.345455h544.581818c60.509091 0 107.054545-46.545455 107.054546-107.054546v-688.872727c0-18.618182-13.963636-32.581818-32.581819-32.581818-18.618182 0-32.581818 13.963636-32.581818 32.581818v688.872727c0 23.272727-18.618182 37.236364-37.236363 37.236364h-544.581819c-18.618182 0-32.581818 13.963636-32.581818 32.581818-4.654545 18.618182 9.309091 37.236364 27.927273 37.236364z" p-id="1661" fill="#8a8a8a"></path><path d="M716.8 4.654545h-507.345455c-60.509091 0-107.054545 46.545455-107.054545 107.054546v651.636364c0 60.509091 46.545455 107.054545 107.054545 107.054545h507.345455c60.509091 0 107.054545-46.545455 107.054545-107.054545v-651.636364c0-55.854545-46.545455-107.054545-107.054545-107.054546z m37.236364 763.345455c0 23.272727-18.618182 37.236364-37.236364 37.236364h-507.345455c-23.272727 0-37.236364-18.618182-37.236363-37.236364v-651.636364c0-23.272727 18.618182-37.236364 37.236363-37.236363h507.345455c23.272727 0 37.236364 18.618182 37.236364 37.236363v651.636364z" p-id="1662" fill="#8a8a8a"></path><path d="M646.981818 404.945455h-363.054545c-18.618182 0-32.581818 13.963636-32.581818 32.581818s13.963636 32.581818 32.581818 32.581818h363.054545c18.618182 0 32.581818-13.963636 32.581818-32.581818s-13.963636-32.581818-32.581818-32.581818z" p-id="1663" fill="#8a8a8a"></path></svg>