<?xml version="1.0" standalone="no"?><!DOCTYPE svg PUBLIC "-//W3C//DTD SVG 1.1//EN" "http://www.w3.org/Graphics/SVG/1.1/DTD/svg11.dtd"><svg t="1614155258873" class="icon" viewBox="0 0 1024 1024" version="1.1" xmlns="http://www.w3.org/2000/svg" p-id="2438" xmlns:xlink="http://www.w3.org/1999/xlink" width="200" height="200"><defs><style type="text/css"></style></defs><path d="M512 0C229.376 0 0 229.376 0 512s229.376 512 512 512 512-229.376 512-512S794.624 0 512 0z m0 955.71968c-245.05856 0-443.71968-198.66112-443.71968-443.71968S266.94144 68.28032 512 68.28032 955.71968 266.94144 955.71968 512 757.05856 955.71968 512 955.71968zM512 194.56a50.70848 50.70848 0 0 1 51.2 51.27168c0 28.63616-22.56384 51.19488-51.2 51.19488-28.70784 0-51.2-22.55872-51.2-51.2A50.70848 50.70848 0 0 1 512 194.56z m-2.56 174.08h5.12a38.4 38.4 0 0 1 38.4 38.4v389.12a38.4 38.4 0 0 1-38.4 38.4h-5.12a38.4 38.4 0 0 1-38.4-38.4v-389.12a38.4 38.4 0 0 1 38.4-38.4z" p-id="2439" fill="#8a8a8a"></path></svg>