<?xml version="1.0" standalone="no"?><!DOCTYPE svg PUBLIC "-//W3C//DTD SVG 1.1//EN" "http://www.w3.org/Graphics/SVG/1.1/DTD/svg11.dtd"><svg t="1611561200582" class="icon" viewBox="0 0 1024 1024" version="1.1" xmlns="http://www.w3.org/2000/svg" p-id="23201" xmlns:xlink="http://www.w3.org/1999/xlink" width="32" height="32"><defs><style type="text/css"></style></defs><path d="M270.0896 959.92426667c-12.85333333-6.83733333-17.67786667-22.87786667-10.75733333-35.64373334 6.9152-12.83733333 22.912-17.648 35.70133333-10.73813333 32.83626667 17.712 67.98186667 31.52746667 104.944 40.8 35.8432 9.00053333 73.4304 13.8112 112.21013333 13.8112 126.25386667 0 240.55786667-51.056 323.28746667-133.64266667 82.72853333-82.592 133.872-196.71146667 133.872-322.68373333 0-126.04373333-51.14346667-240.1632-133.872-322.75093333-82.7296-82.58773333-197.03466667-133.64906667-323.28746667-133.64906667-126.18666667 0-240.49173333 51.06133333-323.21493333 133.648-82.7296 82.58773333-133.87306667 196.7072-133.87306667 322.752 0 55.38133333 9.85066667 108.464 27.94666667 157.43466667 18.79573333 51.12853333 46.39146667 97.792 80.83946667 138.2528 9.43573333 11.01546667 8.10666667 27.62133333-3.00266667 37.03466666-11.04 9.34613333-27.66933333 8.02453333-37.0304-2.9984-38.7104-45.41013333-69.52533333-97.44746667-90.41066667-154.15786666-20.192-54.752-31.23413333-113.9776-31.23413333-175.56693334 0-140.62506667 57.0816-267.92533333 149.3824-360.06933333 92.2944-92.14293333 219.808-149.13173333 360.59733333-149.13173333 140.85546667 0 268.36906667 56.9888 360.6656 149.1328 92.3008 92.14506667 149.3824 219.44426667 149.3824 360.06933333 0 140.55466667-57.0816 267.85813333-149.3824 360.00213333-92.30186667 92.14186667-219.81013333 149.13173333-360.6656 149.13173334-42.9696 0-84.89386667-5.37066667-124.9952-15.49013334a506.10666667 506.10666667 0 0 1-117.10293333-45.54666666z m268.576-456.67733334v73.8016H669.67466667c14.60053333 0 26.4096 11.85706667 26.4096 26.43413334s-11.808 26.36586667-26.41066667 26.36586666h-131.008v82.7968c0 14.58133333-11.8752 26.37013333-26.4096 26.37013334-14.60053333 0-26.47786667-11.78773333-26.47786667-26.37013334v-82.7968H354.77333333c-14.60693333 0-26.41386667-11.78773333-26.41386666-26.36586666s11.808-26.43413333 26.41386666-26.43413334h131.0048v-73.80266666H354.77333333c-14.60693333 0-26.41386667-11.7888-26.41386666-26.36586667 0-14.58133333 11.808-26.43733333 26.41386666-26.43733333h121.92L337.51466667 330.816c-10.97173333-9.488-12.16-26.0928-2.656-37.10826667 9.50293333-10.9536 26.1984-12.20906667 37.16586666-2.65173333l140.2304 120.5312 140.1568-120.5312c11.0432-9.55733333 27.66933333-8.30186667 37.17333334 2.65173333 9.57013333 11.0208 8.31573333 27.62133333-2.65706667 37.1072L547.74613333 450.44373333h121.9232c14.60053333 0 26.41386667 11.856 26.41386667 26.43733334 0 14.576-11.81333333 26.36586667-26.41386667 26.36586666H538.66453333z m0 0" p-id="23202"></path></svg>