<?xml version="1.0" standalone="no"?><!DOCTYPE svg PUBLIC "-//W3C//DTD SVG 1.1//EN" "http://www.w3.org/Graphics/SVG/1.1/DTD/svg11.dtd"><svg t="1614155240293" class="icon" viewBox="0 0 1024 1024" version="1.1" xmlns="http://www.w3.org/2000/svg" p-id="1465" xmlns:xlink="http://www.w3.org/1999/xlink" width="200" height="200"><defs><style type="text/css"></style></defs><path d="M705.6 621.8l-154.8-89.5V288.1c0-20.6-16.7-37.3-37.3-37.3-20.6 0-37.3 16.7-37.3 37.3v261.3c0 13.8 17.2 25.5 28.4 31.9 3.1 4.7 11.6 8.9 16.8 11.9l153.9 93.3c17.8 10.3 37.2 4.2 47.5-13.7 10.2-17.9 0.7-40.7-17.2-51z" p-id="1466" fill="#8a8a8a"></path><path d="M828.7 195.2C744.1 110.6 631.7 64.1 512 64.1c-119.6 0-232 46.6-316.6 131.2C110.9 279.9 64.3 392.4 64.3 512c0 119.7 46.5 232.1 131.1 316.8 84.5 84.5 197 131.1 316.6 131.1 119.6 0 232.1-46.6 316.7-131.2 174.6-174.6 174.6-458.8 0-633.5z m-41.2 592.2C713.9 861 616.1 901.6 512 901.6c-104 0-201.8-40.5-275.3-114.1s-114-171.4-114-275.5 40.5-201.9 114.1-275.5c73.5-73.6 171.3-114 275.3-114S713.9 163 787.5 236.6c151.8 151.8 151.8 399 0 550.8z" p-id="1467" fill="#8a8a8a"></path></svg>