<?xml version="1.0" standalone="no"?><!DOCTYPE svg PUBLIC "-//W3C//DTD SVG 1.1//EN" "http://www.w3.org/Graphics/SVG/1.1/DTD/svg11.dtd"><svg t="1614155252049" class="icon" viewBox="0 0 1088 1024" version="1.1" xmlns="http://www.w3.org/2000/svg" p-id="2032" xmlns:xlink="http://www.w3.org/1999/xlink" width="212.5" height="200"><defs><style type="text/css"></style></defs><path d="M178.624 101.248a46.656 46.656 0 0 0-46.592 46.464v611.456a46.72 46.72 0 0 0 46.592 46.592h280.192l19.968 19.968 82.496 82.368 102.464-102.336h280.128a46.72 46.72 0 0 0 46.72-46.464V147.84c-0.128-25.6-20.8-46.336-46.4-46.528H178.624zM944.384 33.024a114.88 114.88 0 0 1 114.432 114.624v611.648a115.008 115.008 0 0 1-114.88 114.752h-251.968l-103.68 103.488a38.272 38.272 0 0 1-54.08 0l-103.68-103.488H178.624c-63.36-0.064-114.752-51.328-114.88-114.688V147.712A114.944 114.944 0 0 1 178.56 33.024h765.76zM314.496 535.168a64.576 64.576 0 1 0 0.128-129.088 64.576 64.576 0 0 0-0.128 129.088z m258.624 0a64.576 64.576 0 1 0 0.192-129.088 64.576 64.576 0 0 0-0.192 129.088z m194.176-64.64a64.576 64.576 0 1 0 129.152 0.192 64.576 64.576 0 0 0-129.152-0.128z" fill="#8a8a8a" p-id="2033"></path></svg>