<?xml version="1.0" standalone="no"?><!DOCTYPE svg PUBLIC "-//W3C//DTD SVG 1.1//EN" "http://www.w3.org/Graphics/SVG/1.1/DTD/svg11.dtd"><svg t="1611559797519" class="icon" viewBox="0 0 1025 1024" version="1.1" xmlns="http://www.w3.org/2000/svg" p-id="15325" xmlns:xlink="http://www.w3.org/1999/xlink" width="32.03125" height="32"><defs><style type="text/css"></style></defs><path d="M842.7 166.4H182.3C81.7 166.4 0 248.2 0 348.7v344C0 793.3 81.8 875 182.3 875h660.5c100.6 0 182.3-81.8 182.3-182.3v-344c-0.1-100.5-81.8-182.3-182.4-182.3zM997.6 692.7c0 85.3-69.5 154.8-154.8 154.8H182.3c-85.3 0-154.8-69.5-154.8-154.8v-344c0-85.3 69.5-154.8 154.8-154.8h660.5c85.3 0 154.8 69.5 154.8 154.8v344z m0 0" fill="" p-id="15326"></path><path d="M773.1 410.7l-79.2-98.3-23.4 19.8 64.2 79.5-71.3 89.1 23.7 18 85.9-107.5 0.4-0.3-0.1-0.1 0.1-0.1-0.3-0.1z m-437.7-14.4h305.6V425H335.4v-28.7z m-81.4 0h28.7V425h-28.7v-28.7z m99.4 181.3L330.1 558l-79.2 98.2-0.4 0.3 0.1 0.1h-0.1l0.4 0.4 85.9 107.5 23.8-18.1-71.3-89.1 64.1-79.7z m29.5 64.2h305.6v28.7H382.9v-28.7z m358.4 0h28.7v28.7h-28.7v-28.7z m0 0" fill="" p-id="15327"></path></svg>