<?xml version="1.0" standalone="no"?><!DOCTYPE svg PUBLIC "-//W3C//DTD SVG 1.1//EN" "http://www.w3.org/Graphics/SVG/1.1/DTD/svg11.dtd"><svg t="1614155475026" class="icon" viewBox="0 0 1024 1024" version="1.1" xmlns="http://www.w3.org/2000/svg" p-id="13849" xmlns:xlink="http://www.w3.org/1999/xlink" width="200" height="200"><defs><style type="text/css"></style></defs><path d="M877.3 286.8C816.1 181.2 721.6 108.9 604.9 81.1c-161.2-44.5-333.6 5.6-444.8 133.4l-77.8-50 5.6 194.6c0 16.7 22.2 27.8 33.4 16.7L288 275.7l-77.8-38.9c100-105.7 250.1-144.6 389.1-111.2 100.1 27.8 189 94.5 239.1 183.5 55.6 94.5 66.7 200.1 38.9 300.2-27.8 100.1-94.5 189-183.5 239.1-94.5 55.6-200.1 66.7-300.2 38.9-105.6-27.8-189-94.5-244.6-189-5.6-11.1-22.2-16.7-33.4-11.1s-16.7 22.2-11.1 33.4c61.2 105.6 155.7 177.9 272.4 211.3 38.9 16.7 77.8 22.2 116.8 22.2 77.8 0 155.7-22.2 222.4-61.2C821.7 831.6 894 737.1 921.7 620.4c33.4-111.2 16.7-228-44.4-333.6z" p-id="13850" fill="#8a8a8a"></path><path d="M643.8 687.1V570.3H360.2v122.3h55.6V676h177.9v16.7h50v-5.6z m-228-50v-27.8h177.9v27.8H415.8zM393.6 325.7c-22.2 38.9-44.5 72.3-77.8 100.1 5.6 16.7 16.7 33.4 22.2 55.6l22.2-22.2v100.1h50v-5.6h261.3v-33.4H543.7v-22.2h105.6v-33.4H543.7V448h105.6v-33.4H543.7V398H666v-33.4H554.8c-5.6-16.7-16.7-27.8-22.2-44.5l-50 11.1c5.6 11.1 11.1 22.2 11.1 33.4H427c5.6-5.6 11.1-16.7 11.1-22.2l-44.5-16.7z m100.1 194.6h-83.4v-22.2h89v22.2h-5.6z m0-55.6h-83.4V448h89v16.7h-5.6z m0-66.7v22.2h-83.4V398h83.4z" p-id="13851" fill="#8a8a8a"></path></svg>